<?xml version="1.0" encoding="utf-8"?>
<!-- Generator: Adobe Illustrator 18.0.0, SVG Export Plug-In . SVG Version: 6.00 Build 0)  -->
<!DOCTYPE svg PUBLIC "-//W3C//DTD SVG 1.1//EN" "http://www.w3.org/Graphics/SVG/1.1/DTD/svg11.dtd">
<svg version="1.1" id="Capa_1" xmlns="http://www.w3.org/2000/svg" xmlns:xlink="http://www.w3.org/1999/xlink" x="0px" y="0px"
	 viewBox="0 0 86.5 89.5" enable-background="new 0 0 86.5 89.5" xml:space="preserve">
<g>
	<path fill="#B8B8B8" d="M53.8,38.6c0.3,0.4,0.5,0.8,0.5,1.3v13c0,0.6-0.2,1.1-0.6,1.5c-0.4,0.4-0.9,0.6-1.5,0.6H37.6
		c-0.6,0-1.1-0.2-1.5-0.6c-0.4-0.4-0.6-0.9-0.6-1.5v-13c0-0.5,0.2-1,0.5-1.3l1.4-1.8c0.3-0.4,0.7-0.6,1.2-0.6h12.5
		c0.5,0,0.9,0.2,1.2,0.6L53.8,38.6z M37.7,38.4h14.4l-1-1.1H38.6L37.7,38.4z M44.9,51.3l5.7-5.7H47v-2.1h-4.2v2.1h-3.6L44.9,51.3z"
		/>
</g>
</svg>
