<?xml version="1.0" encoding="utf-8"?>
<!-- Generator: Adobe Illustrator 18.0.0, SVG Export Plug-In . SVG Version: 6.00 Build 0)  -->
<!DOCTYPE svg PUBLIC "-//W3C//DTD SVG 1.1//EN" "http://www.w3.org/Graphics/SVG/1.1/DTD/svg11.dtd">
<svg version="1.1" id="Capa_1" xmlns="http://www.w3.org/2000/svg" xmlns:xlink="http://www.w3.org/1999/xlink" x="0px" y="0px"
	 viewBox="0 0 86.5 89.5" enable-background="new 0 0 86.5 89.5" xml:space="preserve">
<g>
	<path fill="#C0C0C0" d="M8.4,71.9c-1.9-0.8-3.2-2.2-4-4c-0.8-1.9-0.8-3.7-0.1-5.6l9.1-22V74L8.4,71.9z M81.5,58
		c0.8,1.9,0.8,3.8,0,5.7c-0.8,1.9-2.2,3.3-4,4.1L49.9,79.3c-0.9,0.4-1.9,0.5-2.8,0.5c-3.4,0-5.7-1.5-6.9-4.6l-18.6-45
		c-0.5-0.9-0.6-1.9-0.5-3c0-3.3,1.5-5.5,4.6-6.7L53.2,9.1c0.9-0.4,1.9-0.5,3-0.5c3.3,0,5.6,1.5,6.9,4.6L81.5,58z M21,72.3V48.5
		l12.8,31.3h-5.4c-2,0-3.7-0.7-5.2-2.2C21.8,76.1,21,74.4,21,72.3z M25.9,30c0.8,0.8,1.6,1.1,2.6,1.1c1,0,1.9-0.4,2.6-1.1
		c0.8-0.8,1.1-1.6,1.1-2.6c0-1-0.4-1.9-1.1-2.6c-0.8-0.8-1.6-1.1-2.6-1.1c-1,0-1.9,0.4-2.6,1.1c-0.8,0.8-1.1,1.6-1.1,2.6
		C24.7,28.3,25.1,29.2,25.9,30z"/>
</g>
</svg>
