<?xml version="1.0" encoding="utf-8"?>
<!-- Generator: Adobe Illustrator 18.0.0, SVG Export Plug-In . SVG Version: 6.00 Build 0)  -->
<!DOCTYPE svg PUBLIC "-//W3C//DTD SVG 1.1//EN" "http://www.w3.org/Graphics/SVG/1.1/DTD/svg11.dtd">
<svg version="1.1" id="Capa_1" xmlns="http://www.w3.org/2000/svg" xmlns:xlink="http://www.w3.org/1999/xlink" x="0px" y="0px"
	 viewBox="0 0 86.5 89.5" enable-background="new 0 0 86.5 89.5" xml:space="preserve">
<path fill="#1E5989" d="M51.5,48.7h-1.6l-0.6-0.6c2-2.3,3.2-5.3,3.2-8.6c0-7.3-5.9-13.3-13.2-13.3c-7.3,0-13.2,6-13.2,13.3
	c0,7.3,5.9,13.3,13.2,13.3c3.3,0,6.3-1.2,8.6-3.2l0.6,0.6v1.6L58.6,62l3-3L51.5,48.7z M39.2,48.7c-5.1,0-9.2-4.1-9.2-9.2
	c0-5.1,4.1-9.2,9.2-9.2c5.1,0,9.2,4.1,9.2,9.2C48.4,44.6,44.3,48.7,39.2,48.7z"/>
</svg>
