<?xml version="1.0" encoding="utf-8"?>
<!-- Generator: Adobe Illustrator 18.0.0, SVG Export Plug-In . SVG Version: 6.00 Build 0)  -->
<!DOCTYPE svg PUBLIC "-//W3C//DTD SVG 1.1//EN" "http://www.w3.org/Graphics/SVG/1.1/DTD/svg11.dtd">
<svg version="1.1" id="Capa_1" xmlns="http://www.w3.org/2000/svg" xmlns:xlink="http://www.w3.org/1999/xlink" x="0px" y="0px"
	 viewBox="0 0 86.5 89.5" enable-background="new 0 0 86.5 89.5" xml:space="preserve">
<g>
	<path fill="#C0C0C0" d="M69.2,9.5c2.1,0,3.9,0.7,5.4,2.2c1.5,1.5,2.2,3.3,2.2,5.4v52.4c0,2.1-0.7,3.9-2.2,5.4
		c-1.5,1.5-3.3,2.2-5.4,2.2H16.8c-2.1,0-3.9-0.7-5.4-2.2c-1.5-1.5-2.2-3.3-2.2-5.4V17.1c0-2.1,0.7-3.9,2.2-5.4
		c1.5-1.5,3.3-2.2,5.4-2.2H69.2z M69.2,69.4V17.1H16.8v52.4H69.2z M59.9,59.2v2.8H26.1v-2.8c0-2.6,1.9-4.6,5.8-6.2
		c3.9-1.5,7.6-2.3,11.1-2.3s7.2,0.8,11.1,2.3C57.9,54.6,59.9,56.7,59.9,59.2z M49,41.7c-1.6,1.6-3.6,2.5-6,2.5c-2.3,0-4.3-0.8-6-2.5
		c-1.6-1.6-2.5-3.6-2.5-6c0-2.3,0.8-4.3,2.5-6c1.6-1.6,3.6-2.5,6-2.5c2.3,0,4.3,0.8,6,2.5c1.6,1.6,2.5,3.6,2.5,6
		C51.4,38,50.6,40,49,41.7z"/>
</g>
</svg>
