<?xml version="1.0" encoding="utf-8"?>
<!-- Generator: Adobe Illustrator 18.0.0, SVG Export Plug-In . SVG Version: 6.00 Build 0)  -->
<!DOCTYPE svg PUBLIC "-//W3C//DTD SVG 1.1//EN" "http://www.w3.org/Graphics/SVG/1.1/DTD/svg11.dtd">
<svg version="1.1" id="Capa_1" xmlns="http://www.w3.org/2000/svg" xmlns:xlink="http://www.w3.org/1999/xlink" x="0px" y="0px"
	 viewBox="0 0 86.5 89.5" enable-background="new 0 0 86.5 89.5" xml:space="preserve">
<g>
	<path fill="#C0C0C0" d="M73.2,15.4c2.1,0,3.9,0.7,5.4,2.2c1.5,1.5,2.2,3.3,2.2,5.4v45c0,2.1-0.7,3.9-2.2,5.4
		c-1.5,1.5-3.3,2.2-5.4,2.2H13.3c-2.1,0-3.9-0.7-5.4-2.2c-1.5-1.5-2.2-3.3-2.2-5.4v-45c0-2.1,0.7-3.9,2.2-5.4
		c1.5-1.5,3.3-2.2,5.4-2.2H73.2z M73.2,67.9v-45H13.3v45H73.2z M39.5,64.3v-3.9h-7.6V53H47v-3.9H35.8c-1.1,0-2-0.4-2.7-1.1
		c-0.8-0.7-1.1-1.6-1.1-2.6V34.2c0-1.1,0.4-1.9,1.1-2.6c0.8-0.7,1.7-1.1,2.7-1.1h3.7v-3.9H47v3.9h7.4v7.4H39.5v3.9h11.2
		c1.1,0,1.9,0.4,2.6,1.1s1.1,1.6,1.1,2.6v11.2c0,1.1-0.4,1.9-1.1,2.6s-1.6,1.1-2.6,1.1H47v3.9H39.5z"/>
</g>
</svg>
