<?xml version="1.0" encoding="utf-8"?>
<!-- Generator: Adobe Illustrator 18.0.0, SVG Export Plug-In . SVG Version: 6.00 Build 0)  -->
<!DOCTYPE svg PUBLIC "-//W3C//DTD SVG 1.1//EN" "http://www.w3.org/Graphics/SVG/1.1/DTD/svg11.dtd">
<svg version="1.1" id="Capa_1" xmlns="http://www.w3.org/2000/svg" xmlns:xlink="http://www.w3.org/1999/xlink" x="0px" y="0px"
	 viewBox="0 0 86.5 89.5" enable-background="new 0 0 86.5 89.5" xml:space="preserve">
<g>
	<path fill="#C0C0C0" d="M43.3,66.7V55.5l14.9,14.9L43.3,85.6V74.3c-8.3,0-15.4-2.9-21.3-8.8c-5.9-5.9-8.8-12.9-8.8-21.3
		c0-5.7,1.5-11.1,4.6-16l5.6,5.4c-1.8,3.3-2.6,6.8-2.6,10.5c0,6.2,2.2,11.5,6.6,15.9S37.1,66.7,43.3,66.7z M43.3,14.2
		c8.2,0,15.2,2.9,21.1,8.8c5.9,5.9,8.8,13,8.8,21.3c0,5.7-1.5,11.1-4.6,16l-5.4-5.4c1.8-3.3,2.6-6.8,2.6-10.5
		c0-6.2-2.2-11.5-6.6-15.9s-9.7-6.6-15.9-6.6V33L28.2,18.1L43.3,2.9V14.2z"/>
</g>
</svg>
