<?xml version="1.0" encoding="utf-8"?>
<!-- Generator: Adobe Illustrator 18.0.0, SVG Export Plug-In . SVG Version: 6.00 Build 0)  -->
<!DOCTYPE svg PUBLIC "-//W3C//DTD SVG 1.1//EN" "http://www.w3.org/Graphics/SVG/1.1/DTD/svg11.dtd">
<svg version="1.1" id="Capa_1" xmlns="http://www.w3.org/2000/svg" xmlns:xlink="http://www.w3.org/1999/xlink" x="0px" y="0px"
	 viewBox="0 0 86.5 89.5" enable-background="new 0 0 86.5 89.5" xml:space="preserve">
<g>
	<path fill="#2190D5" d="M56.7,43.4c0.6,0.6,0.9,1.3,0.9,2.2c0,0.8-0.3,1.5-0.9,2.1L46,58.4c-0.6,0.6-1.3,0.9-2.2,0.9
		c-0.8,0-1.5-0.3-2.1-0.9L28,44.7c-0.6-0.6-0.9-1.3-0.9-2.1V31.8c0-0.8,0.3-1.5,0.9-2.1c0.6-0.6,1.3-0.9,2.2-0.9h10.7
		c0.9,0,1.6,0.3,2.1,0.9L56.7,43.4z M30.8,35.7c0.4,0.4,1,0.6,1.6,0.6c0.6,0,1.2-0.2,1.6-0.6c0.5-0.4,0.7-1,0.7-1.6
		s-0.2-1.2-0.7-1.6c-0.5-0.5-1-0.7-1.6-0.7c-0.6,0-1.2,0.2-1.6,0.7c-0.4,0.5-0.6,1-0.6,1.6S30.4,35.3,30.8,35.7z"/>
</g>
</svg>
