<?xml version="1.0" encoding="utf-8"?>
<!-- Generator: Adobe Illustrator 18.0.0, SVG Export Plug-In . SVG Version: 6.00 Build 0)  -->
<!DOCTYPE svg PUBLIC "-//W3C//DTD SVG 1.1//EN" "http://www.w3.org/Graphics/SVG/1.1/DTD/svg11.dtd">
<svg version="1.1" id="Capa_1" xmlns="http://www.w3.org/2000/svg" xmlns:xlink="http://www.w3.org/1999/xlink" x="0px" y="0px"
	 viewBox="0 0 86.5 89.5" enable-background="new 0 0 86.5 89.5" xml:space="preserve">
<g>
	<path fill="#8C8B8B" d="M59.9,32c0.9,0,1.7,0.3,2.4,1c0.7,0.7,1,1.4,1,2.4v23.3c0,0.9-0.3,1.7-1,2.4c-0.7,0.7-1.4,1-2.4,1H26.6
		c-0.9,0-1.7-0.3-2.4-1c-0.7-0.7-1-1.4-1-2.4V35.4c0-0.9,0.3-1.7,1-2.4c0.7-0.7,1.4-1,2.4-1H59.9z M46.6,57v-1.6c0-1-0.6-2-1.9-2.8
		c-1.2-0.8-2.6-1.4-4.1-1.8c-1.5-0.4-2.8-0.5-4.1-0.5c-1.2,0-2.6,0.2-4.1,0.5c-1.5,0.4-2.8,1-4.1,1.8c-1.2,0.8-1.8,1.8-1.8,2.8V57
		H46.6z M40.1,38.4c-1-1-2.2-1.4-3.6-1.4c-1.4,0-2.6,0.5-3.5,1.4c-1,1-1.4,2.1-1.4,3.6s0.5,2.6,1.4,3.6c1,1,2.1,1.4,3.5,1.4
		c1.4,0,2.6-0.5,3.6-1.4c1-1,1.5-2.1,1.5-3.6S41.1,39.4,40.1,38.4z M53,50.4c-0.4-1.1-0.6-2.3-0.6-3.4s0.2-2.2,0.6-3.4h2.7l2.5-3.3
		L55,37c-2.3,1.7-3.8,3.9-4.6,6.6c-0.3,1.1-0.5,2.3-0.5,3.4s0.2,2.2,0.5,3.4c0.8,2.7,2.3,4.9,4.6,6.6l3.3-3.4l-2.5-3.3H53z"/>
</g>
</svg>
