<?xml version="1.0" encoding="utf-8"?>
<!-- Generator: Adobe Illustrator 18.0.0, SVG Export Plug-In . SVG Version: 6.00 Build 0)  -->
<!DOCTYPE svg PUBLIC "-//W3C//DTD SVG 1.1//EN" "http://www.w3.org/Graphics/SVG/1.1/DTD/svg11.dtd">
<svg version="1.1" id="Capa_1" xmlns="http://www.w3.org/2000/svg" xmlns:xlink="http://www.w3.org/1999/xlink" x="0px" y="0px"
	 viewBox="0 0 86.5 89.5" enable-background="new 0 0 86.5 89.5" xml:space="preserve">
<g>
	<path fill="#2E8AD4" d="M46.6,29l10,10v20c0,0.9-0.3,1.7-1,2.3c-0.7,0.7-1.4,1-2.3,1H33.2c-0.9,0-1.7-0.3-2.3-1
		c-0.7-0.7-1-1.4-1-2.3V32.3c0-0.9,0.3-1.7,1-2.3c0.7-0.7,1.4-1,2.4-1H46.6z M49.9,49v-3.4H36.6V49H49.9z M49.9,55.7v-3.4H36.6v3.4
		H49.9z M44.9,40.7h9.1l-9.1-9.1V40.7z"/>
</g>
</svg>
