<?xml version="1.0" encoding="utf-8"?>
<!-- Generator: Adobe Illustrator 18.0.0, SVG Export Plug-In . SVG Version: 6.00 Build 0)  -->
<!DOCTYPE svg PUBLIC "-//W3C//DTD SVG 1.1//EN" "http://www.w3.org/Graphics/SVG/1.1/DTD/svg11.dtd">
<svg version="1.1" id="Capa_1" xmlns="http://www.w3.org/2000/svg" xmlns:xlink="http://www.w3.org/1999/xlink" x="0px" y="0px"
	 viewBox="0 0 86.5 89.5" enable-background="new 0 0 86.5 89.5" xml:space="preserve">
<g>
	<path fill="#8C8B8B" d="M50.9,27.3v3.4h-20V54h-3.4V30.7c0-0.9,0.3-1.7,1-2.4c0.7-0.7,1.4-1,2.4-1H50.9z M55.9,34
		c0.9,0,1.7,0.3,2.3,1c0.7,0.7,1,1.4,1,2.3v23.4c0,0.9-0.3,1.7-1,2.4c-0.7,0.7-1.4,1-2.3,1H37.5c-0.9,0-1.7-0.3-2.4-1
		c-0.7-0.7-1-1.4-1-2.4V37.3c0-0.9,0.3-1.7,1-2.3c0.7-0.7,1.4-1,2.4-1H55.9z M55.9,60.7V37.3H37.5v23.4H55.9z"/>
</g>
</svg>
