<?xml version="1.0" encoding="utf-8"?>
<!-- Generator: Adobe Illustrator 18.0.0, SVG Export Plug-In . SVG Version: 6.00 Build 0)  -->
<!DOCTYPE svg PUBLIC "-//W3C//DTD SVG 1.1//EN" "http://www.w3.org/Graphics/SVG/1.1/DTD/svg11.dtd">
<svg version="1.1" id="Capa_1" xmlns="http://www.w3.org/2000/svg" xmlns:xlink="http://www.w3.org/1999/xlink" x="0px" y="0px"
	 viewBox="0 0 86.5 89.5" enable-background="new 0 0 86.5 89.5" xml:space="preserve">
<g>
	<path fill="#2190D5" d="M28.9,36.1c0-1.8,0.6-3.3,1.8-4.6c1.2-1.2,2.9-1.8,5.1-1.8c2.2,0,3.9,0.6,5.1,1.8c1.2,1.2,1.8,2.7,1.8,4.6
		v1.6c0,1.8-0.6,3.3-1.8,4.5s-2.9,1.8-5,1.8c-2.2,0-3.9-0.6-5.1-1.8c-1.2-1.2-1.8-2.7-1.8-4.5V36.1z M33.5,37.7
		c0,0.7,0.2,1.3,0.6,1.8s1,0.7,1.7,0.7c0.7,0,1.3-0.2,1.7-0.7s0.6-1.1,0.6-1.8v-1.6c0-0.7-0.2-1.3-0.6-1.8c-0.4-0.5-1-0.7-1.7-0.7
		c-0.7,0-1.3,0.2-1.7,0.7s-0.6,1.1-0.6,1.8V37.7z M36.9,58.7L33.6,57l15-24l3.3,1.7L36.9,58.7z M43.5,53.4c0-1.8,0.6-3.3,1.8-4.5
		c1.2-1.2,2.9-1.8,5.1-1.8c2.2,0,3.9,0.6,5.1,1.8c1.2,1.2,1.8,2.7,1.8,4.5V55c0,1.8-0.6,3.4-1.8,4.6c-1.2,1.2-2.9,1.8-5,1.8
		c-2.2,0-3.9-0.6-5.1-1.8s-1.8-2.7-1.8-4.5V53.4z M48.1,55c0,0.7,0.2,1.3,0.7,1.7c0.5,0.5,1,0.7,1.6,0.7c0.9,0,1.5-0.2,1.8-0.7
		c0.3-0.4,0.5-1,0.5-1.8v-1.6c0-0.7-0.2-1.3-0.6-1.8c-0.4-0.5-1-0.7-1.7-0.7c-0.7,0-1.3,0.2-1.7,0.7c-0.4,0.5-0.6,1.1-0.6,1.8V55z"
		/>
</g>
</svg>
