<?xml version="1.0" encoding="utf-8"?>
<!-- Generator: Adobe Illustrator 18.0.0, SVG Export Plug-In . SVG Version: 6.00 Build 0)  -->
<!DOCTYPE svg PUBLIC "-//W3C//DTD SVG 1.1//EN" "http://www.w3.org/Graphics/SVG/1.1/DTD/svg11.dtd">
<svg version="1.1" id="Capa_1" xmlns="http://www.w3.org/2000/svg" xmlns:xlink="http://www.w3.org/1999/xlink" x="0px" y="0px"
	 viewBox="0 0 86.5 89.5" enable-background="new 0 0 86.5 89.5" xml:space="preserve">
<path fill="#2190D5" d="M69.9,26.5l-8.1-3.6L35.9,34.7v7.6l-4.5-2v-7.6L57.2,21l-8.7-3.8c-1.1-0.5-3.1-0.5-4.2,0L23,26.4
	C21.3,27.1,20,29.2,20,31v13.6c1.3-0.4,2.8-0.6,4.3-0.6c7.6,0,13.9,6,13.9,13.5c0,2-0.5,3.8-1.2,5.4l7.6,3.1c1.1,0.5,2.9,0.5,4,0
	l21.3-8.8c1.7-0.7,3.2-2.8,3.2-4.7V30.9C72.9,29.3,71.6,27.2,69.9,26.5z M61.7,42.2l2.9-5.9c0.2-0.6,1-1,1.3-0.6l2.9,3.3
	c0.2,0.4-0.1,1.1-0.7,1.3L66.9,41v8.6c0,0.4-0.4,0.9-0.7,1l-2,0.6c-0.4,0.1-0.7,0-0.7-0.4v-8.5l-1.2,0.5
	C61.8,43.2,61.4,42.8,61.7,42.2z M51,47l2.6-5.6c0.2-0.6,1-0.9,1.2-0.6l2.8,3.2c0.2,0.4-0.1,1-0.6,1.2l-1.1,0.5l0.1,8.2
	c0,0.4-0.4,0.7-0.7,1l-1.7,0.9c-0.4,0.1-0.7,0-0.7-0.4l-0.1-8.1l-1.1,0.5C51.1,48,50.7,47.6,51,47z M70.2,51.6
	c0,0.2-0.1,0.4-0.4,0.5L50,60.2c-0.2,0.1-0.4,0-0.4-0.1v-1c0-0.1,0.1-0.4,0.4-0.5l19.9-8.2c0.2-0.1,0.4,0,0.4,0.1V51.6z M24.1,46.6
	c-6.3,0-11.3,4.9-11.3,10.9s5,10.9,11.3,10.9s11.3-4.9,11.3-10.9S30.4,46.6,24.1,46.6z M31.5,55.3l-7,7.6c-0.4,0.4-0.9,0.6-1.3,0.6
	c-0.4,0-0.7-0.1-1.1-0.4l-4.3-3.3c-0.7-0.6-0.9-1.6-0.2-2.3c0.6-0.7,1.7-0.9,2.5-0.2l3.1,2.3l5.9-6.4c0.6-0.7,1.7-0.7,2.5-0.1
	C32.1,53.6,32.1,54.7,31.5,55.3z"/>
</svg>
