<?xml version="1.0" encoding="utf-8"?>
<!-- Generator: Adobe Illustrator 18.0.0, SVG Export Plug-In . SVG Version: 6.00 Build 0)  -->
<!DOCTYPE svg PUBLIC "-//W3C//DTD SVG 1.1//EN" "http://www.w3.org/Graphics/SVG/1.1/DTD/svg11.dtd">
<svg version="1.1" id="Capa_1" xmlns="http://www.w3.org/2000/svg" xmlns:xlink="http://www.w3.org/1999/xlink" x="0px" y="0px"
	 viewBox="0 0 86.5 89.5" enable-background="new 0 0 86.5 89.5" xml:space="preserve">
<path fill="#1E5989" d="M43.3,33.2c2.5,0,4.6-2.1,4.6-4.6c0-2.6-2-4.6-4.6-4.6c-2.5,0-4.6,2.1-4.6,4.6
	C38.7,31.2,40.7,33.2,43.3,33.2z M43.3,37.9c-2.5,0-4.6,2.1-4.6,4.6c0,2.6,2,4.6,4.6,4.6c2.5,0,4.6-2.1,4.6-4.6
	C47.8,39.9,45.8,37.9,43.3,37.9z M43.3,51.7c-2.5,0-4.6,2.1-4.6,4.6c0,2.6,2,4.6,4.6,4.6c2.5,0,4.6-2.1,4.6-4.6
	C47.8,53.8,45.8,51.7,43.3,51.7z"/>
</svg>
