<?xml version="1.0" encoding="utf-8"?>
<!-- Generator: Adobe Illustrator 18.0.0, SVG Export Plug-In . SVG Version: 6.00 Build 0)  -->
<!DOCTYPE svg PUBLIC "-//W3C//DTD SVG 1.1//EN" "http://www.w3.org/Graphics/SVG/1.1/DTD/svg11.dtd">
<svg version="1.1" id="Capa_1" xmlns="http://www.w3.org/2000/svg" xmlns:xlink="http://www.w3.org/1999/xlink" x="0px" y="0px"
	 viewBox="0 0 86.5 89.5" enable-background="new 0 0 86.5 89.5" xml:space="preserve">
<g>
	<path fill="#C0C0C0" d="M73,28.3l11.2,14.9v18.8h-7.4c0,3-1.1,5.7-3.3,7.9c-2.2,2.2-4.9,3.3-8,3.3c-3.1,0-5.7-1.1-7.9-3.3
		c-2.2-2.2-3.3-4.9-3.3-7.9H31.8c0,3-1.1,5.7-3.3,7.9c-2.2,2.2-4.9,3.3-8,3.3c-3.1,0-5.7-1.1-7.9-3.3c-2.2-2.2-3.3-4.9-3.3-7.9H1.8
		V20.7c0-2.1,0.7-3.9,2.2-5.4c1.5-1.5,3.3-2.2,5.4-2.2h52.4v15.1H73z M16.5,66c1.1,1.1,2.4,1.7,4,1.7s2.9-0.6,4-1.7
		c1.1-1.1,1.7-2.5,1.7-4s-0.6-2.9-1.7-4c-1.1-1.1-2.5-1.6-4-1.6s-2.9,0.5-4,1.6S15,60.4,15,62S15.5,64.9,16.5,66z M61.5,66
		c1.1,1.1,2.4,1.7,4,1.7s2.9-0.6,4-1.7c1.1-1.1,1.7-2.5,1.7-4s-0.6-2.9-1.7-4c-1.1-1.1-2.5-1.6-4-1.6s-2.9,0.5-4,1.6S60,60.4,60,62
		S60.5,64.9,61.5,66z M71.2,33.9h-9.5v9.3h16.7L71.2,33.9z"/>
</g>
</svg>
