<?xml version="1.0" encoding="utf-8"?>
<!-- Generator: Adobe Illustrator 18.0.0, SVG Export Plug-In . SVG Version: 6.00 Build 0)  -->
<!DOCTYPE svg PUBLIC "-//W3C//DTD SVG 1.1//EN" "http://www.w3.org/Graphics/SVG/1.1/DTD/svg11.dtd">
<svg version="1.1" id="Capa_1" xmlns="http://www.w3.org/2000/svg" xmlns:xlink="http://www.w3.org/1999/xlink" x="0px" y="0px"
	 viewBox="0 0 86.5 89.5" enable-background="new 0 0 86.5 89.5" xml:space="preserve">
<g>
	<path fill="#C0C0C0" d="M5.7,8H18l3.5,7.4h55.4c1.1,0,2,0.4,2.7,1.1c0.8,0.8,1.1,1.7,1.1,2.7c0,0.6-0.2,1.2-0.5,1.8L66.9,45.3
		c-1.4,2.6-3.6,3.9-6.7,3.9H32.3l-3.3,6.2v0.5c0,0.6,0.3,0.9,0.9,0.9h43.4v7.6h-45c-2.1,0-3.9-0.7-5.4-2.2c-1.5-1.5-2.2-3.3-2.2-5.4
		c0-1.3,0.4-2.5,1.1-3.5l4.9-9.3L13.3,15.4H5.7V8z M22.9,70.1c1.4-1.5,3.2-2.2,5.3-2.2s3.9,0.7,5.4,2.2c1.5,1.5,2.2,3.2,2.2,5.3
		c0,2.1-0.7,3.8-2.2,5.3c-1.5,1.5-3.3,2.2-5.4,2.2s-3.9-0.7-5.3-2.2c-1.4-1.5-2.1-3.2-2.1-5.3C20.8,73.4,21.5,71.6,22.9,70.1z
		 M60.5,70.1c1.5-1.5,3.2-2.2,5.3-2.2c2,0,3.8,0.7,5.3,2.2c1.5,1.5,2.2,3.2,2.2,5.3c0,2.1-0.7,3.8-2.2,5.3c-1.5,1.5-3.2,2.2-5.3,2.2
		c-2.1,0-3.8-0.7-5.3-2.2c-1.5-1.5-2.2-3.2-2.2-5.3C58.3,73.4,59,71.6,60.5,70.1z"/>
</g>
</svg>
